HIERARCHY
ROOT ui
{
	 OFFSET 0 0 0
	 CHANNELS 3 XPosition YPosition Z Position
	 EndSite
	 {
	 OFFSET 0 -1 0
	 }
}
ROOT li
{
	 OFFSET 0 0 0
	 CHANNELS 3 XPosition YPosition Z Position
	 EndSite
	 {
	 OFFSET 0 -1 0
	 }
}
ROOT ul
{
	 OFFSET 0 0 0
	 CHANNELS 3 XPosition YPosition Z Position
	 EndSite
	 {
	 OFFSET 0 -1 0
	 }
}
ROOT ll
{
	 OFFSET 0 0 0
	 CHANNELS 3 XPosition YPosition Z Position
	 EndSite
	 {
	 OFFSET 0 -1 0
	 }
}
ROOT tt
{
	 OFFSET 0 0 0
	 CHANNELS 3 XPosition YPosition Z Position
	 EndSite
	 {
	 OFFSET 0 -1 0
	 }
}
ROOT tb
{
	 OFFSET 0 0 0
	 CHANNELS 3 XPosition YPosition Z Position
	 EndSite
	 {
	 OFFSET 0 -1 0
	 }
}
ROOT td
{
	 OFFSET 0 0 0
	 CHANNELS 3 XPosition YPosition Z Position
	 EndSite
	 {
	 OFFSET 0 -1 0
	 }
}
ROOT v
{
	 OFFSET 0 0 0
	 CHANNELS 3 XPosition YPosition Z Position
	 EndSite
	 {
	 OFFSET 0 -1 0
	 }
}
ROOT bn
{
	 OFFSET 0 0 0
	 CHANNELS 3 XPosition YPosition Z Position
	 EndSite
	 {
	 OFFSET 0 -1 0
	 }
}
MOTION
Frames: 18
Frame Time: 0.002
-0.003830024003982544	2.117290049791336E-4	0		0.4223241577148438	-2.305106689453125	0		-1.0909954833984374	-9.135410189628601E-4	0		-0.7233031005859375	-2.516299072265625	0		1.4799549560546874	-0.6332698974609375	0		3.110952392578125	0.08301050567626952	0		4.5727939453125	0.18298881530761718	0		5.58905419921875	0.13188662719726563	0		-0.27115277099609375	5.88240185546875	0		
0.017345443725585937	-0.004178864002227783	0		0.4724945373535156	-2.313960693359375	0		-1.1035855712890625	0.009221645355224609	0		-0.7260211791992187	-2.518316162109375	0		1.479216796875	-0.6332584228515625	0		3.11507861328125	0.07598645782470703	0		4.58280126953125	0.16890811157226562	0		5.60206884765625	0.13156129455566407	0		-0.27207318115234375	5.88236474609375	0		
-0.010280762672424316	0.00523237419128418	0		0.41889208984375	-2.307109375	0		-1.0925286865234376	-0.0010372200012207032	0		-0.6938092651367187	-2.523908447265625	0		1.475393310546875	-0.6371947021484375	0		3.0903349609375	0.07844258117675781	0		4.57125	0.18319374084472656	0		5.58796826171875	0.1323339080810547	0		-0.2730273742675781	5.882326171875	0		
0.01578190803527832	-0.004238268852233887	0		0.4451268310546875	-2.310567138671875	0		-1.0933150634765625	-0.0011021939516067504	0		-0.75453955078125	-2.524979248046875	0		1.4746273193359376	-0.6371775512695312	0		3.10828173828125	0.06220288848876953	0		4.575326171875	0.1752292785644531	0		5.58741162109375	0.13258613586425783	0		-0.24369528198242188	5.9007939453125	0		
-0.0028688580989837645	0.004026218891143799	0		0.39559048461914065	-2.29978271484375	0		-1.1568946533203126	0.011858733177185058	0		-0.7152274169921875	-2.524686279296875	0		1.4769298095703125	-0.6332060546875	0		3.10001904296875	0.09440512084960938	0		4.5786337890625	0.18128855895996093	0		5.5920234375	0.15860548400878907	0		-0.2446778106689453	5.90075732421875	0		
0.01642249870300293	0.007673206806182861	0		0.44984371948242186	-2.303690673828125	0		-1.0816925048828125	0.009554209709167481	0		-0.7288107299804687	-2.518527099609375	0		1.476180908203125	-0.6331812133789062	0		3.09287109375	0.07158745574951172	0		4.57887255859375	0.18240538024902345	0		5.586310546875	0.1331423797607422	0		-0.3809464111328125	5.8839228515625	0		
-0.008453831672668458	4.004300013184547E-5	0		0.44509637451171874	-2.308633544921875	0		-1.0956190185546875	-0.0012966649532318115	0		-0.6877189331054687	-2.53425830078125	0		1.4723897705078124	-0.6371036987304688	0		3.090330810546875	0.08470442199707032	0		4.56813427734375	0.18370721435546875	0		5.58578076171875	0.13344044494628907	0		-0.2769205627441406	5.88217822265625	0		
0.016822772979736327	-4.054200053215027E-4	0		0.44039694213867187	-2.31257568359375	0		-1.0963389892578126	-0.0013606109619140625	0		-0.7382257080078125	-2.52649755859375	0		1.4716932373046876	-0.6370733032226562	0		3.0865107421875	0.07884374237060547	0		4.56331103515625	0.17791705322265625	0		5.58527197265625	0.13374868774414062	0		-0.24951998901367187	5.90268798828125	0		
-0.012906164169311523	-0.0029593830108642577	0		0.41488409423828126	-2.30717919921875	0		-1.097023193359375	-0.0014259740114212036	0		-0.7279454345703125	-2.534726318359375	0		1.4710330810546874	-0.637041748046875	0		3.095935546875	0.08577354431152344	0		4.57081298828125	0.18993426513671874	0		5.59117236328125	0.1286244659423828	0		-0.24944322204589844	5.90163818359375	0		
0.015495848655700684	-4.5376399159431457E-4	0		0.44535867309570315	-2.305689208984375	0		-1.084489990234375	0.009294895172119141	0		-0.7624052124023437	-2.529232177734375	0		1.47347900390625	-0.6330595092773438	0		3.09903076171875	0.06980501556396485	0		4.5701630859375	0.19008512878417969	0		5.58726806640625	0.14638484191894532	0		-0.2503137969970703	5.90160302734375	0		
-0.011096761703491212	-6.283099949359894E-5	0		0.44485293579101565	-2.305699951171875	0		-1.0941978759765625	0.002370060920715332	0		-0.6580928344726562	-2.541978759765625	0		1.4729078369140625	-0.6330299682617188	0		3.10365673828125	0.0838158950805664	0		4.56546337890625	0.18430104064941405	0		5.59033349609375	0.13446058654785156	0		-0.3854453430175781	5.883724609375	0		
0.014355425834655761	-5.121009945869446E-4	0		0.4423512878417969	-2.308681396484375	0		-1.09880615234375	-0.001639646053314209	0		-0.731463623046875	-2.536864501953125	0		1.469324462890625	-0.6369547119140625	0		3.087127197265625	0.08516341400146485	0		4.56491162109375	0.18444932556152344	0		5.58353173828125	0.1350306396484375	0		-0.2812348937988281	5.8819921875	0		
-0.012129790306091308	-1.303189992904663E-4	0		0.43789035034179685	-2.312634521484375	0		-1.099294677734375	-0.0017182539701461792	0		-0.6670525512695312	-2.549968017578125	0		1.46579736328125	-0.64088330078125	0		3.08353955078125	0.07929895782470703	0		4.564416015625	0.18459442138671875	0		5.58318798828125	0.13534483337402345	0		-0.2819557800292969	5.88194580078125	0		
0.013438232421875	-5.857239961624145E-4	0		0.4126366882324219	-2.3072578125	0		-1.171650146484375	0.003348323106765747	0		-0.7372750854492187	-2.54291650390625	0		1.4684576416015624	-0.6369130249023438	0		3.096962158203125	0.07015943908691406	0		4.5619482421875	0.18276849365234374	0		5.58927099609375	0.1302156982421875	0		-0.2523184814453125	5.9004130859375	0		
0.013072881698608398	-6.29459023475647E-4	0		0.4454230041503906	-2.30381201171875	0		-1.080995361328125	0.0038067829608917237	0		-0.7334756469726562	-2.539054443359375	0		1.4770687255859376	-0.6400416870117187	0		3.10899072265625	0.09504442596435547	0		4.57079736328125	0.19676118469238282	0		5.605498046875	0.14199322509765624	0		-0.23876188659667968	5.910134765625	0		
0.015819720268249512	0.002273643970489502	0		0.4162178955078125	-2.3033828125	0		-1.0872158203125	0.00880913543701172	0		-0.7377381591796875	-2.54306884765625	0		1.47090576171875	-0.632937744140625	0		3.082435302734375	0.07953422546386718	0		4.56329931640625	0.18500665283203124	0		5.582421875	0.13624908447265624	0		-0.41707022094726565	5.8628955078125	0		
0.012535332679748535	-7.32574999332428E-4	0		0.4389576721191406	-2.310784912109375	0		-1.0965631103515625	0.0018550989627838135	0		-0.7080215454101563	-2.55262744140625	0		1.467630615234375	-0.636886474609375	0		3.082195068359375	0.07960089111328125	0		4.57303759765625	0.18397322082519532	0		5.58867626953125	0.13628146362304688	0		-0.2842220458984375	5.881712890625	0		
-0.016686697006225586	-0.0033336520195007325	0		0.41087295532226564	-2.310385498046875	0		-1.10080419921875	-0.0021845159530639647	0		-0.7569518432617187	-2.542941650390625	0		1.464414306640625	-0.640842041015625	0		3.082013916015625	0.0796602783203125	0		4.562869140625	0.18524874877929687	0		5.5821357421875	0.13679318237304688	0		-0.28462939453125	5.88164111328125	0		
